# xmcd CD database file
#
# Track frame offsets:
#	150
#	42750
#	89050
#	118800
#	151650
#	185550
#
# Disc length: 2692 seconds
#
# Revision: 0
# Processed by: cddbd v1.5.2PL0 Copyright (c) Steve Scherf et al.
# Submitted via: CDex 1.51
#
DISCID=480a8206
DTITLE=Bob Berg - Steppin': live in Europe
DYEAR=1982
DGENRE=Jazz
TTITLE0=Steppin'
TTITLE1=Terrestris
TTITLE2=Arja
TTITLE3=Luce di Fulvia
TTITLE4=Secret life of plants
TTITLE5=(improvisation)
EXTD=YEAR: 1982
EXTT0=
EXTT1=
EXTT2=
EXTT3=
EXTT4=
EXTT5=
PLAYORDER=
